<svg width="2000" height="1000" xmlns="http://www.w3.org/2000/svg"><defs><linearGradient id="a" gradientTransform="rotate(90)"><stop offset="5%" stop-color="#3624fc"/><stop offset="95%" stop-color="#685afc"/></linearGradient><linearGradient id="b" gradientTransform="rotate(90)"><stop offset="5%" stop-color="#4e45f9"/><stop offset="95%" stop-color="#7a73fa"/></linearGradient><linearGradient id="c" gradientTransform="rotate(90)"><stop offset="5%" stop-color="#6765f6"/><stop offset="95%" stop-color="#8d8bf8"/></linearGradient><linearGradient id="d" gradientTransform="rotate(90)"><stop offset="5%" stop-color="#7f86f3"/><stop offset="95%" stop-color="#9fa4f6"/></linearGradient><linearGradient id="e" gradientTransform="rotate(90)"><stop offset="5%" stop-color="#9ba0f6"/><stop offset="95%" stop-color="#b4b7f8"/></linearGradient><linearGradient id="f" gradientTransform="rotate(90)"><stop offset="5%" stop-color="#b7baf9"/><stop offset="95%" stop-color="#c9cbfa"/></linearGradient><linearGradient id="g" gradientTransform="rotate(90)"><stop offset="5%" stop-color="#d3d3fc"/><stop offset="95%" stop-color="#dedefc"/></linearGradient><linearGradient id="h" gradientTransform="rotate(90)"><stop offset="5%" stop-color="#efedff"/><stop offset="95%" stop-color="#f3f1ff"/></linearGradient></defs><path fill="#1d03ff" d="M0 0h2000v1000H0z"/><path d="M0 111c120.164-3.651 240.329-7.302 348-2 107.671 5.302 202.849 19.557 314 18 111.151-1.557 238.275-18.925 348-25 109.725-6.075 202.05-.855 308 5 105.95 5.855 225.525 12.346 361 14s286.85-1.527 343-4c56.15-2.473 17.075-4.236 18-6l-40 889H0Z" fill="url(#a)"/><path d="M0 222c94.917-11.047 189.834-22.094 308-16 118.166 6.094 259.583 29.33 383 31 123.417 1.67 228.836-18.224 328-25 99.164-6.776 192.075-.435 294 1 101.925 1.435 212.864-2.037 342 3s276.467 18.582 337 21c60.533 2.418 34.266-6.291 48-15l-40 778H0Z" fill="url(#b)"/><path d="M0 333c100.318-4.437 200.637-8.874 314-11 113.363-2.126 239.772-1.941 350-3 110.228-1.059 204.277-3.361 312 2 107.723 5.361 229.122 18.385 343 19 113.878.615 220.236-11.18 351-17s285.932-5.663 345-3c59.068 2.663 22.034 7.831 25 13l-40 667H0Z" fill="url(#c)"/><path d="M0 444c118.92 6.327 237.839 12.654 347 8s208.563-20.29 315-20c106.437.29 219.907 16.503 340 16 120.093-.503 246.808-17.722 352-18 105.192-.278 188.86 16.387 309 17 120.14.613 276.754-14.825 339-18 62.246-3.175 30.123 5.912 38 15l-40 556H0Z" fill="url(#d)"/><path d="M0 555c101.845 6.939 203.69 13.877 322 13 118.31-.877 253.085-9.57 368-14 114.915-4.43 209.969-4.599 312-1s211.04 10.965 315 16c103.96 5.035 202.874 7.74 337 0s303.465-25.926 367-30c63.535-4.074 21.268 5.963 19 16l-40 445H0Z" fill="url(#e)"/><path d="M0 666c120.824-3.975 241.648-7.95 355-12s219.232-8.178 322-2c102.768 6.178 202.424 22.66 313 23 110.576.34 232.072-15.466 342-19 109.928-3.534 208.288 5.202 338 11s290.775 8.656 351 8c60.225-.656 19.613-4.828 19-9l-40 334H0Z" fill="url(#f)"/><path d="M0 777c120.175 2.273 240.35 4.547 348 3 107.65-1.547 202.777-6.914 306-4 103.223 2.914 214.543 14.11 335 10 120.457-4.11 250.05-23.524 365-25 114.95-1.476 215.256 14.987 333 16s252.927-13.425 308-16c55.073-2.575 30.037 6.712 45 16l-40 223H0Z" fill="url(#g)"/><path d="M0 888c105.122 4.934 210.244 9.867 321 12 110.756 2.133 227.145 1.464 344-2 116.855-3.464 234.177-9.724 346-14 111.823-4.276 218.149-6.569 321-3s202.23 13 324 12c121.77-1 265.935-12.428 327-15 61.065-2.572 39.033 3.714 57 10l-40 112H0Z" fill="url(#h)"/><path d="M0 999c118.941 4.84 237.883 9.68 344 12 106.117 2.32 199.41 2.123 304-2s220.479-12.171 337-11c116.521 1.171 233.676 11.561 341 15 107.324 3.439 204.818-.074 328 0 123.182.074 272.052 3.735 334 2 61.948-1.735 36.974-8.868 52-16l-40 1H0Z" fill="url(#gradient_9)"/></svg>